PathFileType  4	(X/Y/Z) C:\Users\antoi\Documents\MyRepositories\mobilecap\ResultsAnalysis
DataRate	CameraRate	NumFrames	NumMarkers	Units	OrigDataRate	OrigDataStartFrame	OrigNumFrames
100.0	100.0	4	51	mm	100.0	68	271
Frame#	Time	r_knee			r_shank_antsup			r_ankle			r_calc			r_5meta			r_toe			L_knee			L_shank_antsup			L_ankle			L_calc			L_5meta			L_toe			r_sh2			r_sh3			r_sh4			L_sh2			L_sh3			r_thigh1			r_thigh2			r_thigh3			r_thigh4			r_thigh5			L_thigh1			L_thigh2			L_thigh3			L_thigh4			r.ASIS			r.PSIS			L.ASIS			L.PSIS			C7			R_Shoulder			L_Shoulder			R_Sternum			L_Sternum			R_humerus			R_elbow_med			R_elbow_lat			R_forearm			R_wrist_radius			R_wrist_ulna			L_humerus			L_elbow_med			L_elbow_lat			L_forearm			L_wrist_radius			L_wrist_ulna			R_HJC			L_HJC			R_HJC_reg			L_HJC_reg			
		X1	Y1	Z1	X2	Y2	Z2	X3	Y3	Z3	X4	Y4	Z4	X5	Y5	Z5	X6	Y6	Z6	X7	Y7	Z7	X8	Y8	Z8	X9	Y9	Z9	X10	Y10	Z10	X11	Y11	Z11	X12	Y12	Z12	X13	Y13	Z13	X14	Y14	Z14	X15	Y15	Z15	X16	Y16	Z16	X17	Y17	Z17	X18	Y18	Z18	X19	Y19	Z19	X20	Y20	Z20	X21	Y21	Z21	X22	Y22	Z22	X23	Y23	Z23	X24	Y24	Z24	X25	Y25	Z25	X26	Y26	Z26	X27	Y27	Z27	X28	Y28	Z28	X29	Y29	Z29	X30	Y30	Z30	X31	Y31	Z31	X32	Y32	Z32	X33	Y33	Z33	X34	Y34	Z34	X35	Y35	Z35	X36	Y36	Z36	X37	Y37	Z37	X38	Y38	Z38	X39	Y39	Z39	X40	Y40	Z40	X41	Y41	Z41	X42	Y42	Z42	X43	Y43	Z43	X44	Y44	Z44	X45	Y45	Z45	X46	Y46	Z46	X47	Y47	Z47	X48	Y48	Z48	X49	Y49	Z49	X50	Y50	Z50	X51	Y51	Z51	

68	0.67000000	-1045.82243	764.26827	-466.43664	-1044.52084	681.81920	-449.06744	-1279.03285	406.29997	-475.07923	-1345.74031	357.08171	-524.10413	-1150.77553	348.66536	-424.26246	-1111.86326	368.50433	-482.30492	-1031.35450	766.82048	-722.15977	-1048.16316	656.58858	-743.48880	-1267.95220	409.15056	-732.86298	-1342.88392	363.45950	-701.33851	-1100.77939	365.83347	-713.20363	-1125.44641	342.51919	-778.32859	-1106.89872	586.94579	-447.45746	-1106.42135	722.09460	-431.70876	-1176.34291	629.18502	-432.02267	-1117.58165	712.26386	-756.31122	-1181.83653	609.46389	-761.04450	-1133.03671	1059.02562	-395.34290	-1071.51938	974.11877	-418.14784	-1101.14866	915.34142	-400.40483	-1225.47603	992.87123	-402.66138	-1151.27252	899.17402	-418.38380	-1123.79743	1071.97081	-743.73786	-1042.12214	959.92530	-736.64807	-1221.72908	1002.03497	-746.08593	-1132.54527	894.95716	-749.57160	-1151.61649	1181.36031	-432.71775	-1307.31553	1297.73479	-515.45145	-1145.16654	1178.25352	-693.94313	-1306.26153	1291.94159	-622.12904	-974.75063	1693.18695	-559.81258	-944.52397	1606.14479	-382.07649	-911.61085	1604.48947	-709.64054	-893.69263	1547.32171	-519.17190	-890.00450	1545.36396	-573.87957	-1014.05481	1366.87609	-266.48018	-1071.39588	1260.81864	-326.10081	-1041.91967	1278.59180	-244.85358	-953.20527	1141.70141	-247.71109	-900.82950	1036.71223	-273.75498	-928.65869	1033.81185	-237.72066	-959.21226	1374.44163	-838.77732	-1029.80939	1268.67078	-804.86934	-990.82698	1285.04943	-864.15347	-896.06320	1133.53780	-856.30182	-837.65759	1055.78345	-834.68052	-868.54942	1037.91215	-852.94611	-1260.04027	1144.66497	-442.55611	-1252.69298	1140.10126	-672.76169	-1248.90522	1148.93081	-468.96786	-1247.20485	1139.57974	-641.17905	
69	0.68000000	-1042.12777	762.08135	-466.29915	-1041.32434	679.54674	-449.29706	-1278.60290	406.21983	-475.08825	-1345.57332	357.24726	-524.13948	-1150.79040	348.29548	-424.17443	-1111.72095	368.17239	-482.24077	-1026.68159	764.65066	-722.58088	-1044.87364	654.90670	-744.18335	-1267.32425	409.74051	-732.78456	-1342.38855	364.22641	-701.33916	-1100.60658	365.38889	-713.46888	-1125.27416	342.04904	-778.56556	-1104.55176	585.16743	-447.59774	-1102.80898	720.06267	-432.08731	-1173.74185	628.60285	-431.87993	-1113.74740	711.46653	-756.68021	-1179.03202	609.65639	-761.31257	-1127.52815	1056.76952	-394.08081	-1065.70662	970.61091	-417.96157	-1096.71224	912.68496	-399.94687	-1220.30796	991.43617	-402.32660	-1147.58020	898.40162	-415.27051	-1117.85921	1070.49643	-743.29291	-1036.38658	958.42811	-736.42696	-1215.92042	1000.98703	-745.89700	-1126.76563	893.96035	-750.34121	-1145.97664	1180.00553	-431.75721	-1301.97938	1296.33664	-514.77601	-1139.09213	1177.45805	-692.96542	-1300.74663	1290.35333	-621.31094	-975.20502	1695.41220	-558.32777	-943.66370	1609.95298	-381.23533	-909.38490	1609.10316	-707.08520	-891.50736	1551.02347	-516.86211	-886.85913	1548.57516	-569.50932	-990.32965	1367.92294	-265.79234	-1037.54456	1256.58636	-324.16832	-1007.71897	1276.97138	-243.71471	-904.63800	1150.47619	-250.91288	-842.22351	1052.25117	-279.91865	-868.01656	1045.61194	-243.55965	-937.52919	1377.99039	-836.51194	-997.71969	1265.25309	-803.72776	-959.64610	1285.83860	-862.52512	-847.93873	1145.91143	-850.37943	-780.99276	1076.13402	-825.67563	-809.27856	1054.56930	-844.42753	-1254.34785	1143.11771	-441.88269	-1246.54929	1138.88182	-672.07969	-1243.19198	1147.95312	-468.11108	-1241.20006	1138.28283	-640.29337	
70	0.69000000	-1038.64073	760.06233	-465.78222	-1038.31357	677.33489	-449.30397	-1278.26197	406.06580	-475.01551	-1345.38410	357.22103	-523.99682	-1151.08298	347.95092	-423.73826	-1111.68258	367.82077	-482.15749	-1021.71219	763.06343	-723.56409	-1041.50616	653.35679	-744.89836	-1266.61263	410.52121	-732.72212	-1341.98415	365.46829	-701.42535	-1100.48618	364.99127	-713.68843	-1125.05675	341.44265	-778.80010	-1102.31873	583.36989	-447.76153	-1099.35565	718.16052	-432.31733	-1171.13643	627.06710	-431.90487	-1109.79365	710.88533	-757.11237	-1176.04754	610.14987	-761.72910	-1121.91756	1054.72042	-393.20409	-1059.32603	966.87920	-417.67125	-1092.21710	910.54533	-399.58425	-1215.16165	990.42965	-401.99452	-1143.65593	897.17980	-413.71897	-1111.66194	1069.44928	-743.06711	-1030.61349	957.15030	-736.68969	-1209.72823	1000.18523	-745.45545	-1120.82416	893.13712	-751.39856	-1140.09189	1179.22913	-430.69034	-1296.28238	1295.34334	-513.87186	-1132.49577	1176.74600	-691.42353	-1294.77048	1289.09672	-620.34488	-975.56448	1698.10073	-556.71342	-942.32977	1614.42905	-380.50584	-906.73272	1614.50688	-704.42263	-889.03544	1555.21626	-514.56711	-883.55372	1552.55704	-564.91527	-965.65714	1372.07187	-265.35931	-1002.35459	1256.79577	-322.43634	-972.75250	1279.67842	-242.72221	-856.42419	1165.32043	-254.71480	-784.95366	1074.60383	-286.84048	-808.09965	1065.07606	-249.64539	-915.34778	1384.28313	-834.20667	-965.03806	1265.75206	-803.08404	-928.03450	1290.50506	-861.15178	-800.73175	1164.51094	-844.54505	-726.20356	1103.54326	-816.13633	-751.39425	1078.77302	-835.59873	-1248.35752	1142.10365	-440.83546	-1239.96706	1137.86855	-671.01189	-1237.08636	1147.42274	-467.14272	-1234.64558	1137.34022	-638.99475	
71	0.70000000	-1035.20072	757.99162	-465.50312	-1035.34079	675.22668	-449.17454	-1277.99367	405.99481	-474.84252	-1345.28494	357.29348	-523.74132	-1151.34656	347.75018	-423.36837	-1111.68575	367.42334	-482.03177	-1016.29577	762.18917	-725.19065	-1037.80993	652.19302	-745.87844	-1265.68645	411.71158	-732.88303	-1341.79258	367.35983	-701.57759	-1100.37922	364.61549	-713.93424	-1124.80699	340.84781	-779.02098	-1100.12921	581.73676	-447.65590	-1096.18941	716.62875	-432.15253	-1168.48453	625.34007	-431.87803	-1105.47630	710.53305	-757.60714	-1173.05995	610.51648	-762.05357	-1116.02102	1052.86084	-392.70227	-1053.89287	964.58180	-417.03798	-1087.62388	908.63705	-399.17831	-1209.89826	989.66098	-401.73911	-1139.10872	895.09769	-414.58230	-1105.08560	1068.78928	-742.69505	-1024.54193	956.04315	-737.16807	-1203.05210	999.68547	-745.14395	-1114.73570	892.35276	-751.85896	-1133.92225	1179.08892	-429.53917	-1290.21242	1294.53330	-513.23638	-1125.35014	1176.39263	-689.68743	-1288.27327	1288.36887	-619.61246	-975.69083	1701.31453	-555.05699	-940.41281	1619.63410	-379.95392	-903.73809	1620.72781	-701.24982	-886.34253	1560.01891	-512.27890	-880.93297	1557.81229	-563.79273	-940.29788	1379.40670	-264.95652	-966.91153	1261.18381	-320.86601	-937.58584	1286.72344	-241.97179	-809.33225	1185.78089	-259.01646	-729.88648	1103.48702	-294.71094	-749.94920	1092.33399	-255.53683	-892.83059	1393.37487	-831.96956	-932.03255	1270.20194	-802.76345	-896.30790	1298.98858	-860.20087	-755.11381	1189.06073	-838.33834	-674.68561	1137.57603	-806.50527	-696.15523	1110.15431	-826.81594	-1242.06091	1141.59012	-439.82196	-1232.75199	1137.19248	-669.95953	-1230.55057	1146.81152	-466.28898	-1227.42555	1136.87315	-637.77179	
